REM DIRINDEX 1\5,1\2\6,1\2\7,1\3\8,1\3\9,1\4\10,1\4\11,1\4\12
REM DIRNAME cjc026,folder01,folder02,folder03,folder04,folder05,folder06,folder07,folder08,folder09,folder10,folder11
TITLE ""
FILE "EJE_DB3000_5th_2A_48.mp3" MP3
  TRACK 01 AUDIO
    TITLE "0:"
    INDEX 01 00:00:00
  TRACK 02 AUDIO
    TITLE "10:cjc026_08181"
    INDEX 01 00:00:08
  TRACK 03 AUDIO
    TITLE "0:"
    INDEX 01 00:01:51
  TRACK 04 AUDIO
    TITLE "11:cjc026_08182"
    INDEX 01 00:02:12
  TRACK 05 AUDIO
    TITLE "0:"
    INDEX 01 00:03:31
  TRACK 06 AUDIO
    TITLE "12:cjc026_08183"
    INDEX 01 00:03:66
  TRACK 07 AUDIO
    TITLE "0:"
    INDEX 01 00:05:35
  TRACK 08 AUDIO
    TITLE "10:cjc026_08184"
    INDEX 01 00:05:70
  TRACK 09 AUDIO
    TITLE "0:"
    INDEX 01 00:07:25
  TRACK 10 AUDIO
    TITLE "11:cjc026_08185"
    INDEX 01 00:07:60
  TRACK 11 AUDIO
    TITLE "0:"
    INDEX 01 00:09:05
  TRACK 12 AUDIO
    TITLE "12:cjc026_08186"
    INDEX 01 00:09:40
  TRACK 13 AUDIO
    TITLE "0:"
    INDEX 01 00:10:68
  TRACK 14 AUDIO
    TITLE "10:cjc026_08187"
    INDEX 01 00:11:28
  TRACK 15 AUDIO
    TITLE "0:"
    INDEX 01 00:12:47
  TRACK 16 AUDIO
    TITLE "11:cjc026_08188"
    INDEX 01 00:13:10
  TRACK 17 AUDIO
    TITLE "0:"
    INDEX 01 00:14:24
  TRACK 18 AUDIO
    TITLE "12:cjc026_08189"
    INDEX 01 00:14:62
  TRACK 19 AUDIO
    TITLE "0:"
    INDEX 01 00:16:04
  TRACK 20 AUDIO
    TITLE "10:cjc026_08190"
    INDEX 01 00:16:41
  TRACK 21 AUDIO
    TITLE "0:"
    INDEX 01 00:17:58
  TRACK 22 AUDIO
    TITLE "11:cjc026_08191"
    INDEX 01 00:18:21
  TRACK 23 AUDIO
    TITLE "0:"
    INDEX 01 00:19:35
  TRACK 24 AUDIO
    TITLE "12:cjc026_08192"
    INDEX 01 00:19:70
  TRACK 25 AUDIO
    TITLE "0:"
    INDEX 01 00:21:12
  TRACK 26 AUDIO
    TITLE "10:cjc026_08193"
    INDEX 01 00:21:50
  TRACK 27 AUDIO
    TITLE "0:"
    INDEX 01 00:23:03
  TRACK 28 AUDIO
    TITLE "11:cjc026_08194"
    INDEX 01 00:23:35
  TRACK 29 AUDIO
    TITLE "0:"
    INDEX 01 00:24:63
  TRACK 30 AUDIO
    TITLE "12:cjc026_08195"
    INDEX 01 00:25:23
  TRACK 31 AUDIO
    TITLE "0:"
    INDEX 01 00:26:48
  TRACK 32 AUDIO
    TITLE "10:cjc026_08196"
    INDEX 01 00:27:10
  TRACK 33 AUDIO
    TITLE "0:"
    INDEX 01 00:28:30
  TRACK 34 AUDIO
    TITLE "11:cjc026_08197"
    INDEX 01 00:28:68
  TRACK 35 AUDIO
    TITLE "0:"
    INDEX 01 00:30:15
  TRACK 36 AUDIO
    TITLE "12:cjc026_08198"
    INDEX 01 00:30:53
  TRACK 37 AUDIO
    TITLE "0:"
    INDEX 01 00:31:72
  TRACK 38 AUDIO
    TITLE "10:cjc026_08199"
    INDEX 01 00:32:32
  TRACK 39 AUDIO
    TITLE "0:"
    INDEX 01 00:33:44
  TRACK 40 AUDIO
    TITLE "11:cjc026_08200"
    INDEX 01 00:34:06
  TRACK 41 AUDIO
    TITLE "0:"
    INDEX 01 00:35:15
  TRACK 42 AUDIO
    TITLE "12:cjc026_08201"
    INDEX 01 00:35:50
  TRACK 43 AUDIO
    TITLE "0:"
    INDEX 01 00:36:62
  TRACK 44 AUDIO
    TITLE "10:cjc026_08202"
    INDEX 01 00:37:24
  TRACK 45 AUDIO
    TITLE "0:"
    INDEX 01 00:38:49
  TRACK 46 AUDIO
    TITLE "11:cjc026_08203"
    INDEX 01 00:39:12
  TRACK 47 AUDIO
    TITLE "0:"
    INDEX 01 00:40:45
  TRACK 48 AUDIO
    TITLE "12:cjc026_08204"
    INDEX 01 00:41:05
  TRACK 49 AUDIO
    TITLE "0:"
    INDEX 01 00:42:30
  TRACK 50 AUDIO
    TITLE "10:cjc026_08205"
    INDEX 01 00:42:71
  TRACK 51 AUDIO
    TITLE "0:"
    INDEX 01 00:44:15
  TRACK 52 AUDIO
    TITLE "11:cjc026_08206"
    INDEX 01 00:44:50
  TRACK 53 AUDIO
    TITLE "0:"
    INDEX 01 00:45:72
  TRACK 54 AUDIO
    TITLE "12:cjc026_08207"
    INDEX 01 00:46:33
  TRACK 55 AUDIO
    TITLE "0:"
    INDEX 01 00:47:52
  TRACK 56 AUDIO
    TITLE "10:cjc026_08208"
    INDEX 01 00:48:15
  TRACK 57 AUDIO
    TITLE "0:"
    INDEX 01 00:49:34
  TRACK 58 AUDIO
    TITLE "11:cjc026_08209"
    INDEX 01 00:49:69
  TRACK 59 AUDIO
    TITLE "0:"
    INDEX 01 00:51:00
  TRACK 60 AUDIO
    TITLE "12:cjc026_08210"
    INDEX 01 00:51:36
  TRACK 61 AUDIO
    TITLE "0:"
    INDEX 01 00:52:55
  TRACK 62 AUDIO
    TITLE "10:cjc026_08211"
    INDEX 01 00:53:15
  TRACK 63 AUDIO
    TITLE "0:"
    INDEX 01 00:54:45
  TRACK 64 AUDIO
    TITLE "11:cjc026_08212"
    INDEX 01 00:55:08
  TRACK 65 AUDIO
    TITLE "0:"
    INDEX 01 00:56:22
  TRACK 66 AUDIO
    TITLE "12:cjc026_08213"
    INDEX 01 00:56:57
  TRACK 67 AUDIO
    TITLE "0:"
    INDEX 01 00:58:10
  TRACK 68 AUDIO
    TITLE "10:cjc026_08214"
    INDEX 01 00:58:51
  TRACK 69 AUDIO
    TITLE "0:"
    INDEX 01 00:59:62
  TRACK 70 AUDIO
    TITLE "11:cjc026_08215"
    INDEX 01 01:00:19
  TRACK 71 AUDIO
    TITLE "0:"
    INDEX 01 01:01:31
  TRACK 72 AUDIO
    TITLE "12:cjc026_08216"
    INDEX 01 01:01:66
  TRACK 73 AUDIO
    TITLE "0:"
    INDEX 01 01:03:02
